<?xml version="1.0" encoding="UTF-8"?>
<!DOCTYPE svg PUBLIC "-//W3C//DTD SVG 1.1//EN" "http://www.w3.org/Graphics/SVG/1.1/DTD/svg11.dtd">
<svg xmlns="http://www.w3.org/2000/svg" version="1.1" width="50px" height="50px" style="shape-rendering:geometricPrecision; text-rendering:geometricPrecision; image-rendering:optimizeQuality; fill-rule:evenodd; clip-rule:evenodd" xmlns:xlink="http://www.w3.org/1999/xlink">
<g><path style="opacity:0.79" fill="#fefffe" d="M 14.5,2.5 C 34.2443,2.0845 41.4109,11.4178 36,30.5C 39.6824,34.0152 43.1824,37.6819 46.5,41.5C 45.101,44.0993 43.101,45.5993 40.5,46C 36.6667,42.1667 32.8333,38.3333 29,34.5C 17.8123,39.4054 9.47894,36.4054 4,25.5C 1.58514,15.0031 5.08514,7.33647 14.5,2.5 Z M 15.5,7.5 C 28.3202,6.15271 33.8202,11.8194 32,24.5C 28.3449,31.0702 22.8449,33.2368 15.5,31C 8.92982,27.3449 6.76315,21.8449 9,14.5C 10.6941,11.6424 12.8607,9.30904 15.5,7.5 Z"/></g>
</svg>
