<?xml version="1.0" encoding="UTF-8"?>
<!DOCTYPE svg PUBLIC "-//W3C//DTD SVG 1.1//EN" "http://www.w3.org/Graphics/SVG/1.1/DTD/svg11.dtd">
<svg xmlns="http://www.w3.org/2000/svg" version="1.1" width="64px" height="64px" style="shape-rendering:geometricPrecision; text-rendering:geometricPrecision; image-rendering:optimizeQuality; fill-rule:evenodd; clip-rule:evenodd" xmlns:xlink="http://www.w3.org/1999/xlink">
<g><path style="opacity:0.95" fill="#fefffe" d="M 0.5,5.5 C 3.51838,5.33537 6.51838,5.50204 9.5,6C 11.02,7.88469 12.02,10.0514 12.5,12.5C 27.1281,14.081 41.7948,15.2477 56.5,16C 57.428,16.3879 58.0946,17.0546 58.5,18C 56.8391,25.798 55.3391,33.6313 54,41.5C 53.5,42 53,42.5 52.5,43C 40.1667,43.6667 27.8333,43.6667 15.5,43C 15,42.5 14.5,42 14,41.5C 11.5459,30.8464 8.71255,20.3464 5.5,10C 3.86586,9.50649 2.19919,9.33982 0.5,9.5C 0.5,8.16667 0.5,6.83333 0.5,5.5 Z"/></g>
<g><path style="opacity:0.887" fill="#fefffe" d="M 17.5,47.5 C 25.4863,46.998 27.4863,50.1647 23.5,57C 15.424,57.8047 13.424,54.638 17.5,47.5 Z"/></g>
<g><path style="opacity:0.887" fill="#fefffe" d="M 43.5,47.5 C 51.4863,46.998 53.4863,50.1647 49.5,57C 41.424,57.8047 39.424,54.638 43.5,47.5 Z"/></g>
</svg>
